<?xml version="1.0" standalone="no"?>
<!DOCTYPE svg PUBLIC "-//W3C//DTD SVG 20010904//EN"
 "http://www.w3.org/TR/2001/REC-SVG-20010904/DTD/svg10.dtd">
<svg version="1.0" xmlns="http://www.w3.org/2000/svg"
 width="1632.000000pt" height="640.000000pt" viewBox="0 0 1632.000000 640.000000"
 preserveAspectRatio="xMidYMid meet">

<g transform="translate(0.000000,640.000000) scale(0.100000,-0.100000)"
fill="#000000" stroke="none">
<path d="M10147 5464 c-4 -4 -7 -657 -7 -1451 l0 -1443 70 0 70 0 0 896 c0
797 2 900 16 929 21 46 56 66 123 72 71 7 123 -14 151 -59 20 -32 20 -48 20
-935 l0 -903 65 0 65 0 0 904 c0 593 -3 907 -10 911 -5 3 -10 14 -10 24 0 9
-12 29 -27 43 -84 79 -221 98 -375 52 -17 -5 -18 24 -20 478 l-3 483 -60 3
c-34 2 -64 0 -68 -4z"/>
<path d="M5935 5259 c-3 -8 -4 -615 -3 -1349 l3 -1335 185 -3 c151 -2 195 0
239 14 64 20 115 62 141 117 19 39 20 66 20 634 0 584 0 594 -21 638 -12 25
-37 58 -56 74 l-35 29 41 41 c72 72 71 62 71 539 0 309 -3 435 -12 461 -19 55
-76 107 -139 126 -76 23 -426 35 -434 14z m374 -63 c74 -39 80 -79 81 -549 0
-419 -4 -457 -50 -507 l-28 -30 -121 0 -121 0 0 550 0 550 105 0 c73 0 115 -5
134 -14z m-2 -1156 c16 -6 36 -23 45 -38 35 -59 39 -143 36 -717 -3 -542 -4
-561 -23 -595 -32 -55 -73 -70 -192 -70 l-103 0 0 715 0 715 104 0 c56 0 116
-5 133 -10z"/>
<path d="M4729 5176 c-2 -2 -78 -7 -169 -11 -155 -6 -215 -11 -215 -15 0 -1
-20 -4 -45 -5 -108 -8 -162 -15 -197 -24 -21 -5 -45 -9 -53 -10 -14 0 -34 -4
-92 -16 -13 -3 -50 -10 -83 -16 -33 -7 -62 -15 -65 -18 -3 -4 -14 -8 -25 -9
-28 -2 -58 -7 -75 -14 -8 -4 -28 -10 -45 -14 -16 -4 -34 -9 -40 -10 -35 -11
-152 -46 -160 -48 -5 -1 -25 -10 -42 -19 -18 -10 -35 -17 -38 -16 -8 2 -65
-20 -97 -37 -16 -9 -28 -13 -28 -10 0 3 -27 -8 -59 -25 -33 -16 -65 -29 -71
-29 -6 0 -28 -11 -50 -25 -22 -14 -45 -25 -51 -25 -6 0 -24 -9 -40 -21 -16
-11 -29 -18 -29 -14 0 7 -119 -57 -169 -91 -20 -13 -40 -24 -45 -24 -5 0 -23
-11 -40 -24 -17 -13 -51 -33 -76 -46 -25 -12 -59 -35 -76 -50 -17 -15 -51 -37
-75 -48 -24 -12 -73 -49 -109 -82 -36 -33 -73 -63 -82 -66 -10 -3 -18 -10 -18
-15 0 -5 -7 -9 -15 -9 -8 0 -15 -4 -15 -8 0 -4 -13 -16 -30 -25 -40 -24 -470
-457 -470 -474 0 -7 -5 -13 -10 -13 -6 0 -14 -8 -17 -17 -8 -21 -33 -55 -77
-103 -48 -53 -86 -105 -86 -119 0 -7 -20 -36 -44 -64 -24 -29 -51 -68 -61 -87
-10 -19 -28 -49 -41 -67 -13 -17 -24 -37 -24 -43 0 -7 -16 -34 -35 -60 -19
-26 -35 -53 -35 -59 0 -7 -11 -29 -25 -49 -14 -20 -25 -44 -25 -53 0 -9 -9
-24 -20 -34 -11 -10 -20 -27 -20 -38 0 -10 -8 -31 -19 -45 -10 -15 -22 -41
-25 -59 -4 -17 -14 -37 -22 -44 -8 -6 -14 -21 -14 -33 0 -12 -4 -26 -9 -32
-11 -12 -53 -118 -82 -209 -12 -38 -26 -79 -31 -90 -5 -12 -10 -27 -12 -35 -2
-8 -5 -22 -8 -30 -13 -35 -47 -169 -55 -210 -2 -14 -9 -43 -15 -65 -7 -22 -13
-47 -14 -55 -1 -8 -11 -67 -23 -131 -18 -104 -29 -176 -36 -249 -1 -14 -6 -56
-11 -95 -9 -77 -11 -457 -3 -605 l5 -95 94 2 c51 2 95 5 98 7 6 6 6 32 -1 171
-5 111 -10 323 -7 335 1 3 3 41 5 85 3 44 7 105 10 135 4 30 8 77 10 104 2 26
6 60 9 75 3 14 8 44 12 66 3 22 10 58 16 79 5 22 11 51 13 65 2 14 5 26 6 26
1 0 3 9 5 20 6 40 15 80 21 95 9 22 18 56 29 109 8 37 83 264 94 283 6 10 10
23 10 30 0 6 8 30 19 52 10 23 26 61 36 86 23 59 116 247 166 335 22 39 48 89
59 111 11 23 27 47 36 55 8 7 26 34 39 59 13 26 36 62 52 80 15 19 46 62 68
96 22 34 64 91 92 126 29 35 83 101 120 146 79 97 327 340 393 385 25 17 72
53 105 81 80 68 131 106 144 106 6 0 28 16 49 35 21 19 58 44 83 55 24 11 65
35 91 53 83 57 119 77 135 77 9 0 24 6 32 14 18 15 133 75 206 107 28 12 62
28 76 35 14 7 28 11 31 8 3 -2 11 2 18 11 7 8 22 15 34 15 12 0 26 4 31 9 6 5
42 19 80 31 39 13 76 28 84 34 8 6 15 9 15 7 1 -2 42 9 91 25 50 15 94 27 99
25 6 -1 19 2 30 7 33 16 138 41 241 58 6 1 12 3 15 4 11 4 106 18 170 25 30 3
69 8 85 10 112 16 201 20 435 20 146 0 293 -3 327 -5 34 -3 64 -2 67 1 6 6 19
122 17 158 -1 32 -4 34 -48 37 -21 2 -38 4 -38 5 0 1 -68 3 -152 4 -84 2 -156
6 -161 9 -5 3 -11 4 -13 2z"/>
<path d="M9510 4791 l0 -290 -33 -6 c-18 -4 -37 -6 -42 -5 -32 7 -46 -1 -43
-22 3 -20 10 -23 61 -26 l57 -3 0 -837 c0 -808 1 -839 20 -891 23 -63 45 -89
101 -119 34 -18 57 -22 141 -22 97 0 99 0 96 23 -3 20 -8 22 -70 22 -60 0 -70
3 -96 29 -17 15 -35 46 -41 69 -12 47 -26 1532 -15 1654 l7 72 111 3 c111 3
111 3 111 28 0 25 0 25 -110 28 -71 2 -112 7 -118 15 -4 7 -7 136 -5 287 l3
275 -67 3 -68 3 0 -290z"/>
<path d="M7005 4509 c-27 -6 -77 -12 -110 -13 -33 -2 -68 -4 -77 -5 -17 -1
-18 -54 -18 -961 l0 -960 65 0 65 0 2 748 c3 1141 -1 1072 54 1123 33 31 146
40 197 16 55 -27 61 -51 65 -264 l4 -193 65 0 65 0 -4 183 -3 184 -30 48 c-42
67 -99 95 -208 100 -45 2 -104 -1 -132 -6z"/>
<path d="M7855 4511 c-93 -15 -153 -61 -179 -138 -14 -41 -16 -144 -16 -832 0
-757 1 -788 20 -840 39 -108 103 -144 260 -145 126 -1 185 14 239 61 56 47 64
85 65 283 l1 165 -65 0 -65 0 -5 -190 c-6 -219 -14 -242 -85 -269 -85 -33
-168 -11 -201 53 -17 32 -19 66 -22 343 l-3 307 29 -8 c127 -37 288 -13 360
53 55 50 56 58 60 500 4 460 -1 521 -48 578 -44 53 -102 76 -206 82 -49 3
-112 1 -139 -3z m189 -58 c66 -31 66 -29 65 -540 0 -328 -4 -468 -12 -492 -20
-57 -56 -76 -146 -76 -90 0 -125 14 -141 58 -11 33 -15 911 -4 966 8 37 54 88
87 94 52 10 119 6 151 -10z"/>
<path d="M8675 4502 c-122 -51 -138 -85 -143 -305 l-4 -168 68 3 69 3 5 180
c3 125 9 188 19 207 19 37 64 53 143 52 57 0 72 -4 94 -25 51 -47 54 -65 54
-383 l0 -296 -47 8 c-84 13 -205 7 -260 -11 -57 -20 -117 -77 -130 -124 -11
-37 -10 -887 0 -936 11 -51 68 -112 125 -134 53 -20 153 -22 336 -7 l109 9 -2
887 c-2 952 0 920 -53 980 -51 58 -92 72 -223 75 -94 1 -129 -2 -160 -15z
m258 -801 c45 -42 48 -76 45 -551 -3 -483 -3 -481 -60 -523 -33 -25 -122 -34
-170 -18 -20 7 -42 24 -53 44 -19 30 -20 56 -23 502 -3 491 -2 503 41 543 29
27 49 31 129 29 54 -2 72 -7 91 -26z"/>
<path d="M11177 4509 c-84 -20 -135 -66 -161 -145 -15 -45 -16 -130 -14 -845
l3 -794 30 -55 c36 -65 79 -93 173 -111 132 -25 269 6 327 73 46 55 57 112 53
288 l-3 145 -62 3 -63 3 0 -139 c0 -147 -12 -241 -37 -283 -19 -32 -73 -53
-135 -51 -58 1 -94 18 -122 55 -19 26 -21 46 -27 285 -8 283 -3 376 16 368 7
-2 48 -10 92 -16 65 -10 89 -9 147 4 107 25 156 64 184 145 17 49 17 839 0
913 -16 67 -73 128 -143 151 -53 19 -192 22 -258 6z m214 -61 c64 -36 64 -38
64 -548 0 -439 -1 -456 -20 -490 -31 -52 -76 -72 -157 -68 -79 4 -118 27 -131
77 -4 18 -7 243 -5 499 l3 468 23 29 c31 39 65 53 131 54 37 1 65 -5 92 -21z"/>
<path d="M4587 4324 c-2 -2 -39 -6 -83 -9 -43 -3 -97 -8 -119 -12 -22 -3 -51
-7 -65 -8 -14 -1 -25 -3 -25 -5 0 -1 -18 -3 -40 -5 -22 -1 -51 -5 -65 -8 -14
-3 -54 -11 -90 -17 -36 -7 -72 -14 -80 -17 -8 -3 -24 -7 -35 -9 -22 -3 -150
-41 -175 -51 -8 -4 -19 -8 -25 -8 -5 -1 -23 -7 -40 -14 -16 -7 -39 -15 -50
-17 -21 -4 -50 -16 -97 -40 -15 -8 -30 -13 -35 -12 -8 2 -189 -81 -233 -108
-14 -8 -41 -22 -60 -31 -19 -8 -50 -26 -68 -40 -18 -14 -40 -26 -48 -27 -8 -1
-36 -19 -62 -39 -27 -20 -62 -42 -79 -49 -16 -7 -58 -38 -92 -68 -34 -30 -74
-62 -89 -70 -39 -22 -43 -25 -97 -71 -145 -125 -385 -379 -385 -409 0 -5 -4
-10 -8 -10 -4 0 -15 -12 -25 -27 -9 -16 -35 -48 -57 -73 -22 -24 -40 -51 -40
-59 0 -7 -16 -33 -35 -57 -20 -24 -50 -69 -68 -101 -33 -57 -39 -69 -69 -128
-8 -16 -20 -39 -26 -50 -27 -48 -86 -182 -88 -197 -1 -10 -6 -24 -13 -32 -10
-12 -75 -184 -86 -226 -2 -8 -17 -60 -34 -115 -17 -55 -40 -147 -51 -205 -11
-58 -22 -116 -25 -130 -7 -34 -25 -181 -32 -260 -10 -120 -5 -548 7 -580 1 -3
3 -12 4 -20 1 -12 17 -15 90 -12 57 1 93 7 98 14 4 7 5 31 1 53 -9 69 -11 477
-3 540 5 33 11 85 14 115 5 49 9 85 21 170 2 14 9 43 15 65 6 22 13 49 16 60
3 11 7 31 10 45 2 14 13 57 24 95 12 39 23 77 25 85 5 19 25 78 36 105 4 11
20 49 34 85 24 60 46 110 66 152 5 10 13 26 17 35 5 10 16 32 25 48 9 17 24
46 34 65 10 19 30 54 45 77 16 23 28 46 28 50 0 5 14 28 31 52 18 23 41 60 53
81 12 21 49 74 83 117 35 43 79 98 98 123 78 101 371 388 383 376 2 -3 9 -1
16 5 62 52 166 129 172 129 5 0 32 18 59 40 28 22 57 40 65 40 9 0 31 13 50
29 19 15 52 33 72 40 20 7 42 19 48 27 7 7 17 14 23 14 6 0 43 16 84 35 41 19
77 35 81 35 4 0 24 9 45 20 20 11 37 18 37 15 0 -3 13 1 30 10 16 8 33 14 37
14 8 -2 17 1 83 26 87 34 154 54 162 49 5 -3 14 -1 21 4 11 9 140 36 224 48
21 3 49 7 63 9 14 3 52 7 85 11 33 4 65 10 70 14 6 4 111 6 235 4 258 -3 340
-7 357 -17 6 -4 23 -3 37 3 19 7 26 17 27 37 2 51 7 92 13 116 8 34 -14 49
-63 44 -23 -2 -41 -1 -41 3 0 4 -15 8 -32 8 -268 7 -417 9 -421 6z"/>
<path d="M4577 3484 c-4 -4 -30 -8 -59 -9 -69 -3 -150 -15 -163 -23 -10 -7
-43 -12 -82 -12 -13 0 -23 -4 -23 -8 0 -4 -14 -9 -32 -10 -18 -2 -57 -10 -88
-19 -30 -9 -59 -17 -65 -18 -5 0 -21 -6 -35 -12 -14 -6 -56 -23 -95 -38 -104
-41 -285 -130 -324 -159 -19 -15 -41 -26 -48 -26 -49 0 -437 -342 -555 -490
-52 -65 -148 -208 -148 -220 0 -5 -15 -30 -34 -55 -19 -24 -37 -58 -41 -74 -3
-16 -13 -35 -21 -42 -8 -6 -14 -20 -14 -30 0 -10 -7 -27 -16 -38 -19 -21 -29
-47 -81 -196 -18 -55 -38 -109 -43 -120 -14 -33 -20 -57 -26 -94 -3 -20 -8
-43 -11 -51 -6 -16 -9 -29 -16 -70 -2 -14 -7 -44 -11 -68 -14 -79 -15 -97 -20
-267 -3 -93 -1 -199 4 -235 18 -135 21 -166 23 -190 2 -24 5 -25 61 -22 33 1
65 7 72 12 6 6 18 8 26 5 26 -10 40 20 33 67 -20 129 -23 178 -20 333 1 94 8
202 14 240 7 39 14 81 16 95 8 45 35 154 52 205 10 28 18 52 18 55 1 3 6 16
12 30 6 14 19 45 28 70 9 25 26 63 36 86 10 23 19 46 19 53 0 6 14 30 30 53
17 22 30 46 30 53 0 7 12 30 28 51 15 21 33 51 39 65 6 15 25 42 41 60 16 19
46 61 67 94 54 85 288 320 348 351 27 13 72 44 100 69 28 24 63 47 79 50 15 4
28 10 28 15 0 9 244 133 268 136 7 1 20 8 28 15 9 7 23 14 32 14 10 1 44 11
77 22 61 21 112 36 130 38 6 1 21 5 35 8 105 25 174 38 225 43 116 11 377 10
458 -2 45 -6 85 -10 89 -8 4 3 9 0 12 -4 7 -12 57 -2 61 12 5 13 16 110 18
151 2 23 -3 30 -18 32 -11 2 -33 5 -50 8 -106 20 -461 30 -471 14 -5 -8 -8 -8
-13 0 -4 6 -10 8 -14 5z"/>
<path d="M4616 2643 c-1 -1 -22 -4 -48 -7 -26 -3 -75 -13 -110 -21 -35 -9 -74
-18 -87 -21 -14 -3 -29 -8 -35 -12 -6 -3 -15 -7 -21 -7 -44 -4 -163 -55 -211
-91 -17 -13 -34 -20 -38 -17 -3 4 -23 -7 -44 -23 -20 -16 -55 -38 -77 -49 -61
-31 -271 -246 -344 -353 -34 -52 -60 -96 -57 -99 3 -3 -3 -18 -13 -32 -27 -38
-78 -162 -96 -231 -2 -8 -13 -50 -24 -93 -38 -146 -46 -370 -19 -532 5 -33 11
-70 12 -83 2 -12 6 -25 9 -29 4 -3 7 -17 7 -30 0 -31 19 -37 71 -22 24 7 49
13 54 14 6 0 16 4 23 8 6 5 16 6 21 3 5 -3 14 1 20 8 9 11 9 28 -3 73 -8 32
-18 85 -22 118 -10 78 -10 306 0 331 5 10 10 36 12 57 2 21 13 63 24 94 11 32
20 65 20 74 0 9 7 22 15 29 8 7 13 16 10 20 -6 10 68 156 94 184 10 12 30 41
42 66 27 52 207 233 259 260 19 10 52 32 74 49 21 17 44 31 51 31 7 0 24 9 38
20 14 11 33 20 42 20 9 0 29 7 43 15 34 18 157 55 186 55 12 0 27 5 34 12 9 9
12 9 12 -1 0 -7 4 -9 10 -6 16 10 117 27 160 28 43 0 185 -14 222 -22 24 -6
57 -13 73 -16 48 -10 49 -10 63 -18 23 -15 52 3 52 32 0 15 3 31 7 34 3 4 7
17 8 30 2 12 5 36 9 52 9 39 -4 56 -42 57 -18 1 -32 4 -32 7 0 4 -8 7 -17 8
-10 0 -38 4 -63 8 -25 4 -61 8 -80 10 -19 1 -43 6 -54 10 -11 5 -21 3 -27 -6
-5 -8 -9 -9 -9 -3 0 7 -34 11 -101 10 -55 -1 -101 -2 -103 -3z"/>
<path d="M11095 2251 c-13 -27 -15 -110 -13 -693 l3 -663 75 -3 c129 -5 120
-17 120 167 l0 158 75 74 c42 41 80 75 85 77 12 4 12 5 250 -258 52 -58 118
-130 147 -160 l52 -55 126 -3 c82 -2 126 0 124 6 -4 11 -137 159 -238 267 -88
93 -311 343 -311 348 0 2 105 111 234 241 l235 236 -85 0 c-54 0 -95 -5 -113
-14 -25 -14 -119 -106 -442 -439 l-134 -139 -5 439 -5 438 -82 3 -82 3 -16
-30z"/>
<path d="M12350 2274 c-44 -18 -55 -92 -18 -118 34 -24 129 -21 156 4 26 25
30 81 6 101 -17 14 -118 23 -144 13z"/>
<path d="M5927 2133 c-4 -3 -7 -33 -7 -65 l0 -58 263 -2 262 -3 3 -557 2 -558
95 0 c93 0 96 1 105 26 6 15 10 237 10 560 l0 534 259 0 c143 0 261 3 264 8 2
4 1 33 -1 65 l-4 57 -622 0 c-343 0 -626 -3 -629 -7z"/>
<path d="M14670 1999 c-209 -17 -336 -83 -399 -207 -45 -87 -65 -345 -41 -501
41 -257 133 -333 420 -348 181 -9 331 24 405 88 18 16 36 29 40 29 13 0 -3
-115 -25 -172 -21 -58 -73 -115 -129 -143 -94 -47 -441 -36 -601 19 l-40 14 0
-39 c0 -47 21 -63 118 -92 96 -28 431 -36 550 -14 126 24 205 75 264 172 51
82 56 141 64 676 5 370 3 478 -6 484 -17 11 -173 23 -480 38 -30 2 -93 0 -140
-4z m347 -131 l83 -12 0 -312 c0 -172 -4 -323 -9 -336 -14 -37 -65 -82 -128
-113 -57 -29 -61 -30 -213 -30 -139 0 -159 3 -195 22 -95 50 -125 124 -133
325 -5 131 9 263 33 321 30 72 74 108 165 133 59 16 291 17 397 2z"/>
<path d="M8735 1990 c-152 -18 -215 -54 -215 -123 0 -36 2 -39 23 -33 126 36
441 59 582 43 155 -17 235 -118 235 -297 l0 -72 -32 6 c-51 10 -330 25 -463
25 -240 1 -328 -33 -371 -144 -16 -41 -19 -75 -19 -190 1 -125 3 -145 23 -182
62 -118 175 -153 500 -153 291 0 480 26 529 72 l23 21 0 346 c-1 365 -4 403
-50 509 -35 81 -91 122 -215 158 -60 18 -442 27 -550 14z m437 -535 c90 -9
169 -17 176 -20 9 -3 12 -54 12 -209 0 -247 13 -229 -175 -251 -306 -36 -463
-1 -504 111 -9 23 -15 78 -15 134 -1 173 41 225 194 240 118 11 140 11 312 -5z"/>
<path d="M10250 1994 c-175 -16 -316 -98 -369 -216 -81 -180 -80 -524 1 -694
28 -59 75 -107 138 -141 102 -55 197 -73 393 -73 154 0 292 15 347 38 37 14
60 45 67 86 7 44 1 45 -112 16 -62 -16 -110 -20 -234 -20 -212 1 -290 21 -362
92 -47 48 -68 104 -86 235 -15 107 -15 130 -1 238 8 66 23 138 33 160 24 53
76 100 144 132 52 25 67 27 236 31 171 4 268 -4 349 -29 37 -11 39 -9 31 35
-10 53 -46 82 -118 96 -62 12 -373 21 -457 14z"/>
<path d="M13320 1994 c-177 -21 -369 -62 -397 -86 -10 -8 -13 -120 -13 -498 0
-571 -11 -523 116 -518 l79 3 5 454 5 454 32 18 c86 48 360 62 468 24 61 -21
110 -72 120 -123 4 -20 9 -216 12 -434 l4 -398 78 0 c118 0 111 -25 111 407 0
365 -8 469 -37 530 -37 79 -118 128 -248 149 -86 15 -278 25 -335 18z"/>
<path d="M7720 1985 c-8 -2 -51 -9 -95 -16 -84 -12 -178 -34 -195 -44 -6 -4
-10 -185 -10 -499 0 -580 -10 -536 115 -536 l75 0 2 472 3 472 54 19 c42 14
86 19 180 19 180 2 233 -25 247 -125 l7 -48 91 3 91 3 -3 50 c-8 122 -51 170
-192 212 -42 12 -336 27 -370 18z"/>
<path d="M12319 1974 c-15 -19 -6 -904 10 -966 16 -61 66 -114 118 -125 45
-10 183 -9 236 1 38 7 38 8 35 49 l-3 42 -75 -3 c-70 -3 -77 -2 -100 23 l-25
27 -3 474 c-2 359 -6 476 -15 479 -7 2 -47 5 -90 8 -54 3 -80 0 -88 -9z"/>
<path d="M4640 1684 c-30 -7 -56 -18 -58 -23 -2 -6 -15 -11 -28 -11 -13 0 -24
-3 -24 -8 0 -4 -14 -13 -31 -21 -32 -14 -129 -123 -129 -145 0 -7 -8 -28 -17
-47 -21 -43 -29 -179 -13 -239 6 -25 14 -58 17 -73 6 -34 95 -133 161 -180 26
-18 67 -39 92 -47 56 -16 217 -24 225 -10 3 6 14 10 25 10 35 0 136 59 181
107 45 47 101 134 97 150 -1 4 2 24 6 45 16 75 14 111 -16 238 -9 40 -113 165
-163 198 -39 24 -108 54 -135 58 -68 10 -144 9 -190 -2z"/>
</g>
</svg>
